<svg id="lockup" xmlns="http://www.w3.org/2000/svg" viewBox="0 0 300 60"><title>Coke21_Journey_MY_Logo_FA</title><path d="M77.16,52.07a20.52,20.52,0,0,0-12.4-3.61,7.63,7.63,0,0,0-6.05,3.28c-1.88-3.28-5.61-5.3-11.36-5.25-9.29.11-18.49,4.41-25.8,4.41-7,0-12.12-4.41-11.94-12.22C9.9,25,21.48,12.63,30.13,7.07c5-3.2,9.14-4.15,11.86-3.84,2,.22,4.38,2.51,2.88,5.9-2.22,4.95-5.28,4.54-5.16,2.17a3.86,3.86,0,0,1,1.86-3,3.7,3.7,0,0,1,1.8-.44c.43-.37.77-3.08-2.8-2.18S32.71,10,28.63,14.54s-10.45,13.07-12,22c-.74,4.16-.24,11.74,9.61,11.66,8.36-.07,20.69-5.58,32-5.48a21.56,21.56,0,0,1,11.21,3.07c3,1.81,6.46,4.44,7.71,6.24m2.67-24.85h1.72S73,39.63,68.12,39.07c-2.73-.31-1.93-3.66-1.93-3.66s-3.8,4.46-7.28,3.58c-3.17-.81-1.13-6.09-1.13-6.09-.36.15-7.22,7.88-12,6-5-2-2.43-8.42-1.47-10.36C45.1,26.93,46,25.33,46,25.33s-.77.22-1.25.33-1.22.25-1.22.25-2.38,3.88-3.83,5.81S32,40.31,28.39,39s-2.75-6.44-.7-10.49C31,21.91,38.9,13.83,43.64,15s.84,9,.84,9,1,.13,3.24-1.44C51,20.37,55.36,14.32,60.07,15c2.22.33,4.27,2.6,1.46,6.92-.9,1.38-2.42,2.62-3.58,1.4-.72-.76-.09-2.15.67-3.1a3,3,0,0,1,2.54-1.16s.78-1.79-1.2-1.76c-1.6,0-5.65,3.77-7.94,7.55-2.1,3.46-5.27,9.37-2.08,10.65,2.92,1.18,8.49-5.44,11.07-8.9S69.47,15.29,74.4,15a3.32,3.32,0,0,1,2.7,1.45l.58-.91H82.6S73.32,31,72.59,32.19c-.57.92-1.33,3,.77,1.82s6.47-6.79,6.47-6.79M41.61,25.65a10.68,10.68,0,0,1-2.54-1.16,5.42,5.42,0,0,1-1.81-2c0-.08-.09,0-.14.05s-.31.4-2.06,3-4.36,7.86-1.92,8.77c1.56.57,4.18-2.17,5.6-4a47.79,47.79,0,0,0,2.95-4.42c.06-.16,0-.2-.08-.23m2-8.24c-1.29-1-4.58,1.31-4.6,3.64s3,3.08,3.36,3.1a.41.41,0,0,0,.47-.2,22.93,22.93,0,0,0,.94-2.11c.45-1.19,1-3.52-.17-4.43M68.67,30.32c2-2.73,7.48-12.29,7.48-12.29a.82.82,0,0,0-.75-.7c-.75,0-2,.23-4.53,3.38A57.89,57.89,0,0,0,65,29c-1.56,2.84-2.24,4.86-1.34,5.4a1.34,1.34,0,0,0,.93.1A5.68,5.68,0,0,0,67,32.54c.48-.57,1-1.33,1.7-2.22m22.14-14.8H86.13L83.49,19.8h4.67Zm69.05-7.68c-3.45,2.22-8.24,4.23-12.85,3.8-1.16,1.2-2.41,2.59-3.67,4.12,8,1.57,15-3.38,18.7-7.59a24.78,24.78,0,0,0,3.46-5,30.55,30.55,0,0,1-5.64,4.65M146.17,44.12c-.65,1.06-1.4,3.09.78,1.82,2.65-1.54,6.45-7.3,6.45-7.3h1.72a57.85,57.85,0,0,1-5.2,6.85c-2.71,3-6,5.7-8.32,5.44-2.71-.32-1.86-3.88-1.86-3.88s-3.89,4.13-6.57,3.85c-3.61-.41-2.51-4.89-2.51-4.89s-4.1,5-6.89,4.89c-4.37-.27-3.27-5.61-2.06-9.34.65-2,1.26-3.58,1.26-3.58a12.34,12.34,0,0,1-1.37.25c-.48.08-1.38.13-1.38.13A58.74,58.74,0,0,1,117,43.51c-1.46,1.94-7.64,8.6-11.29,7.26-3.38-1.23-2.26-6.4-.3-10.49,2.86-6,10.91-14.58,15.56-13.45,4.81,1.16.1,10,.1,10a.07.07,0,0,0,0,0,1.79,1.79,0,0,0,.93,0,10.68,10.68,0,0,0,1.77-.53S128.6,26.12,134,19.49s16-18.07,20.2-15.31c1,.68.56,3-.82,5.86a16.37,16.37,0,0,1-1.89.5,15,15,0,0,0,1.72-4.07c.62-3.42-7.38,3.79-13.09,11.58a108.07,108.07,0,0,0-9.14,14.82,25.65,25.65,0,0,0,2.95-2.11A83.7,83.7,0,0,0,141.13,24a80.59,80.59,0,0,0,6.19-7.13c.61,0,1.22-.1,1.81-.19a77.88,77.88,0,0,1-6.81,8.06c-2.28,2.3-4.74,4.79-6.9,6.6a57.61,57.61,0,0,1-6,4.5s-5,10.07-2.29,10.72c1.6.38,4.76-4.49,4.76-4.49a111.12,111.12,0,0,1,6.6-9.11c3.38-3.86,6.3-6.08,9.22-6.12a3.44,3.44,0,0,1,2.7,1.77l.79-1.23h4.93S146.92,43,146.17,44.12M118.52,38a9.92,9.92,0,0,1-2.27-1.44,7.45,7.45,0,0,1-1.71-2.06c0-.08-.09,0-.14.05s-.25.24-2,2.82-4.45,7.91-2,8.81c1.57.57,4.17-2.16,5.58-4a32.93,32.93,0,0,0,2.62-4c.08-.15,0-.19-.07-.22M121,33.62c.45-1.18,1-3.51-.18-4.42s-4.58,1.3-4.6,3.64a4,4,0,0,0,2.89,3.62c.32.09.43.08.58-.18A20.55,20.55,0,0,0,121,33.62m28.25-3.28a1.56,1.56,0,0,0,.14-.34.79.79,0,0,0-.73-.7c-.76,0-1.79.11-4.51,3.12a41.06,41.06,0,0,0-5.78,8.21c-1.56,2.84-2.18,5-1.28,5.51a1.31,1.31,0,0,0,.94.1,5.52,5.52,0,0,0,2.34-1.93c.49-.56,1-1.36,1.68-2.26,1.79-2.44,6.3-10.16,7.2-11.71m10.61-22.5c-3.45,2.22-8.24,4.23-12.85,3.8-1.16,1.2-2.41,2.59-3.67,4.12,8,1.57,15-3.38,18.7-7.59a24.78,24.78,0,0,0,3.46-5,30.55,30.55,0,0,1-5.64,4.65m-22.43,5.78c-3.78-1.93-6.55-4.29-9.42-5.77s-4.51-2-6.72-1.69a6.65,6.65,0,0,0-.92.23s1.15,3.89-3.4,10.44-8.76,6.6-9.94,4.77.35-5.85,3-9.35a33.79,33.79,0,0,1,7.73-6.68s-1.57-1-5.43,1.23S102.11,14,96.11,22.56s-7.2,13.26-8,17-.07,7.68,4,7.68,8.88-6.28,10.23-8.46c2.51-4.05,4.14-10.28.73-9.42-1.68.42-3,2.29-3.9,4.07A17.29,17.29,0,0,0,97.92,37a14.44,14.44,0,0,0-3.33,1.93,25.36,25.36,0,0,0-3.16,2.79s0-3,2.38-7.75,6.68-7,9.14-7.19c2.21-.18,5.09,1.7,2.66,8.63S96,50.74,88.43,50.86c-7,.09-11.55-8.81-1.84-24.33C97.31,9.35,109.91,4.08,114,3.48s5.42,1.22,5.42,1.22a17.42,17.42,0,0,1,7.77-1.29c5,.34,8.87,3.88,14,6.35-1.34,1.29-2.61,2.62-3.74,3.86M118.82,6.89a19.46,19.46,0,0,0-6.32,4.92c-3.42,3.76-5.37,8-3.91,9.07.56.43,1.85.5,4.21-1.62a18.49,18.49,0,0,0,5-6.91c1.52-3.71,1-5.41,1-5.46"/><path d="M191.71,51.75h-2.59v-16l-7.29,15.57H180l-7.22-15.3v15.7h-2.59V32.52h3.61L181,47.83l7.15-15.31h3.61Z"/><path d="M210.89,49.51v2.13a3,3,0,0,1-1.26.22,3.55,3.55,0,0,1-2.08-.62,2.44,2.44,0,0,1-1-1.79,5.53,5.53,0,0,1-2.39,1.95,8,8,0,0,1-3.3.67,6.82,6.82,0,0,1-4.07-1.17,3.84,3.84,0,0,1-1.65-3.31A3.91,3.91,0,0,1,197,44.15a10.29,10.29,0,0,1,5.59-1.24h3.85v-.19a3.18,3.18,0,0,0-1.14-2.61,4.61,4.61,0,0,0-3.06-.94,8.05,8.05,0,0,0-2.45.4,6.47,6.47,0,0,0-2.14,1.15l-1.42-1.87A7.64,7.64,0,0,1,199,37.37a11.45,11.45,0,0,1,3.34-.5,7.13,7.13,0,0,1,4.82,1.53,5.2,5.2,0,0,1,1.78,4.19v5.88a1,1,0,0,0,1.2,1.17A2,2,0,0,0,210.89,49.51Zm-6.21-.8A4.65,4.65,0,0,0,206.43,45h-3.8q-5,0-5,2.48a2,2,0,0,0,.92,1.73,4.24,4.24,0,0,0,2.44.63A6.12,6.12,0,0,0,204.68,48.71Z"/><path d="M216.07,31.67V48.23a1.26,1.26,0,0,0,.39,1,1.46,1.46,0,0,0,1,.34,3.4,3.4,0,0,0,1.18-.24v2.32A4.28,4.28,0,0,1,217,52a3.62,3.62,0,0,1-2.55-.87,3.07,3.07,0,0,1-.95-2.37V31.67Z"/><path d="M236.13,49.51v2.13a3,3,0,0,1-1.26.22,3.53,3.53,0,0,1-2.08-.62,2.44,2.44,0,0,1-1-1.79,5.53,5.53,0,0,1-2.39,1.95,8,8,0,0,1-3.3.67A6.87,6.87,0,0,1,222,50.9a3.86,3.86,0,0,1-1.64-3.31,3.92,3.92,0,0,1,1.88-3.44,10.33,10.33,0,0,1,5.6-1.24h3.85v-.19a3.18,3.18,0,0,0-1.14-2.61,4.64,4.64,0,0,0-3.06-.94,8,8,0,0,0-2.45.4,6.47,6.47,0,0,0-2.14,1.15l-1.42-1.87a7.56,7.56,0,0,1,2.78-1.48,11.45,11.45,0,0,1,3.34-.5,7.13,7.13,0,0,1,4.82,1.53,5.23,5.23,0,0,1,1.78,4.19v5.88a1,1,0,0,0,1.2,1.17A2,2,0,0,0,236.13,49.51Zm-6.21-.8A4.65,4.65,0,0,0,231.67,45h-3.8q-5,0-5,2.48a2,2,0,0,0,.92,1.73,4.24,4.24,0,0,0,2.44.63A6.12,6.12,0,0,0,229.92,48.71Z"/><path d="M251.86,37.2l-7.37,16.34A5.87,5.87,0,0,1,242.56,56a4.8,4.8,0,0,1-2.83.84,7.9,7.9,0,0,1-1.61-.19,6.92,6.92,0,0,1-1.59-.54l.74-2.13a5.91,5.91,0,0,0,2.35.59,2.89,2.89,0,0,0,2.73-1.93l.45-1L236.15,37.2H239l5.08,11.69,5-11.69Z"/><path d="M256.26,49.21a9,9,0,0,0,3.16.57,5.23,5.23,0,0,0,2.69-.61,1.78,1.78,0,0,0,1-1.56,1.26,1.26,0,0,0-.55-1.09,3.74,3.74,0,0,0-1.62-.59l-3.87-.7a6.11,6.11,0,0,1-3.18-1.4,3.31,3.31,0,0,1-1-2.47,3.82,3.82,0,0,1,.76-2.32,5,5,0,0,1,2.21-1.58,9.31,9.31,0,0,1,3.36-.56,11.69,11.69,0,0,1,3.27.46,8.79,8.79,0,0,1,3,1.49l-1.36,1.9a7.24,7.24,0,0,0-2.3-1.2,8.44,8.44,0,0,0-2.75-.46,5,5,0,0,0-2.55.58,1.69,1.69,0,0,0-1,1.5,1.18,1.18,0,0,0,.57,1,5.2,5.2,0,0,0,1.89.63l3.6.64a6,6,0,0,1,3.17,1.42,3.39,3.39,0,0,1,1,2.51,3.89,3.89,0,0,1-.79,2.4,5.13,5.13,0,0,1-2.23,1.63,8.76,8.76,0,0,1-3.31.59,13.46,13.46,0,0,1-3.86-.59,9,9,0,0,1-3.2-1.6l1.34-2A9.12,9.12,0,0,0,256.26,49.21Z"/><path d="M269.16,34.55a1.5,1.5,0,0,1-.48-1.15,1.53,1.53,0,0,1,.48-1.15,1.73,1.73,0,0,1,1.21-.45,1.69,1.69,0,0,1,1.2.45,1.53,1.53,0,0,1,.48,1.15,1.5,1.5,0,0,1-.48,1.15,1.69,1.69,0,0,1-1.2.46A1.74,1.74,0,0,1,269.16,34.55Zm-.08,2.65h2.57V51.75h-2.57Z"/><path d="M290.4,49.51v2.13a3,3,0,0,1-1.26.22,3.55,3.55,0,0,1-2.08-.62,2.44,2.44,0,0,1-1-1.79,5.53,5.53,0,0,1-2.39,1.95,8,8,0,0,1-3.3.67,6.82,6.82,0,0,1-4.07-1.17,3.84,3.84,0,0,1-1.65-3.31,3.91,3.91,0,0,1,1.89-3.44,10.29,10.29,0,0,1,5.59-1.24h3.85v-.19a3.18,3.18,0,0,0-1.14-2.61,4.61,4.61,0,0,0-3.06-.94,8.05,8.05,0,0,0-2.45.4,6.47,6.47,0,0,0-2.14,1.15l-1.42-1.87a7.64,7.64,0,0,1,2.78-1.48,11.45,11.45,0,0,1,3.34-.5,7.13,7.13,0,0,1,4.82,1.53,5.2,5.2,0,0,1,1.78,4.19v5.88a1,1,0,0,0,1.2,1.17A2,2,0,0,0,290.4,49.51Zm-6.21-.8A4.65,4.65,0,0,0,285.94,45h-3.8q-5,0-5,2.48a2,2,0,0,0,.92,1.73,4.24,4.24,0,0,0,2.44.63A6.12,6.12,0,0,0,284.19,48.71Z"/></svg>